<?xml version="1.0" standalone="no"?><!DOCTYPE svg PUBLIC "-//W3C//DTD SVG 1.1//EN" "http://www.w3.org/Graphics/SVG/1.1/DTD/svg11.dtd"><svg t="1591360607130" class="icon" viewBox="0 0 1024 1024" version="1.1" xmlns="http://www.w3.org/2000/svg" p-id="15854" xmlns:xlink="http://www.w3.org/1999/xlink" width="200" height="200"><defs><style type="text/css"></style></defs><path d="M946.23513 950.208636c10.217297 15.325946 10.217297 35.76054 0 51.086486-15.325946 20.434594-40.869189 30.651891-61.303783 15.325946-91.955674-51.086486-178.8027-102.172972-270.758375-148.150809l-107.281621-61.303783c-10.217297 5.108649-20.434594 10.217297-35.76054 20.434594-71.52108 40.869189-143.04216 81.738377-214.56324 117.498918-45.977837 25.543243-86.847026 45.977837-132.824863 71.52108-20.434594 10.217297-51.086486 5.108649-61.303783-15.325946-10.217297-15.325946-10.217297-35.76054 0-51.086486v-5.108648c5.108649-15.325946 10.217297-30.651891 20.434594-40.869189L154.394599 740.754045c35.76054-76.629729 66.412432-153.259457 102.172972-224.780538 35.76054-76.629729 71.52108-153.259457 102.172972-234.997835L440.47892 102.172972c10.217297-25.543243 20.434594-51.086486 35.76054-76.629729 10.217297-20.434594 45.977837-20.434594 56.195134 0l20.434595 40.869189c25.543243 51.086486 45.977837 107.28162 71.52108 158.368106 35.76054 76.629729 66.412432 153.259457 102.172971 224.780537 61.303783 137.933512 122.607566 275.867023 189.019998 413.800536 10.217297 25.543243 20.434594 51.086486 30.651892 71.52108v15.325945z" fill="#44D3A6" p-id="15855"></path><path d="M501.782703 807.166476V10.217297c10.217297 0 25.543243 5.108649 30.651891 15.325946l20.434595 40.869189c25.543243 51.086486 45.977837 107.28162 71.52108 158.368106 35.76054 76.629729 66.412432 153.259457 102.172971 224.780537 61.303783 137.933512 122.607566 275.867023 189.019998 413.800536 10.217297 25.543243 20.434594 51.086486 30.651892 71.52108v5.108648c10.217297 15.325946 10.217297 35.76054 0 51.086486-15.325946 20.434594-40.869189 30.651891-61.303783 15.325946-91.955674-51.086486-178.8027-102.172972-270.758375-148.150809-35.76054-10.217297-71.52108-30.651891-112.390269-51.086486z" fill="#34C094" p-id="15856"></path></svg>