<?xml version="1.0" standalone="no"?><!DOCTYPE svg PUBLIC "-//W3C//DTD SVG 1.1//EN" "http://www.w3.org/Graphics/SVG/1.1/DTD/svg11.dtd"><svg t="1625629478685" class="icon" viewBox="0 0 1024 1024" version="1.1" xmlns="http://www.w3.org/2000/svg" p-id="2478" xmlns:xlink="http://www.w3.org/1999/xlink" width="200" height="200"><defs><style type="text/css"></style></defs><path d="M682.666667 1024a42.666667 42.666667 0 0 1-42.666667-42.666667v-165.12a101.12 101.12 0 0 0-28.16-81.493333 42.666667 42.666667 0 0 1-9.386667-42.666667 42.666667 42.666667 0 0 1 35.413334-27.733333c122.88-14.08 236.8-54.613333 236.8-256a190.72 190.72 0 0 0-52.053334-130.56 42.666667 42.666667 0 0 1-9.386666-42.666667A170.666667 170.666667 0 0 0 819.2 128a359.253333 359.253333 0 0 0-112.64 55.04 42.666667 42.666667 0 0 1-34.986667 5.973333 523.946667 523.946667 0 0 0-276.48 0 42.666667 42.666667 0 0 1-34.986666-5.973333A341.333333 341.333333 0 0 0 247.466667 128a170.666667 170.666667 0 0 0 5.973333 101.973333 42.666667 42.666667 0 0 1-9.386667 42.666667A188.16 188.16 0 0 0 192 407.04c0 199.68 113.92 241.493333 237.226667 256a42.666667 42.666667 0 0 1 34.986666 28.16 42.666667 42.666667 0 0 1-9.386666 42.666667 99.84 99.84 0 0 0-28.16 79.36V981.333333a42.666667 42.666667 0 0 1-85.333334 0v-74.666666A210.346667 210.346667 0 0 1 120.746667 810.666667c-16.64-21.333333-31.146667-39.253333-45.653334-42.666667a42.666667 42.666667 0 1 1 20.48-85.333333 176.64 176.64 0 0 1 92.16 74.24c35.413333 45.226667 64.426667 81.92 153.6 63.573333v-4.266667a180.906667 180.906667 0 0 1 12.8-78.933333c-120.32-27.306667-247.466667-101.12-247.466666-329.813333a272.213333 272.213333 0 0 1 58.88-170.666667 256 256 0 0 1 12.373333-167.68A42.666667 42.666667 0 0 1 205.226667 42.666667C220.586667 39.68 278.613333 31.146667 391.68 102.4a622.933333 622.933333 0 0 1 283.306667 0C788.053333 31.146667 846.08 39.68 861.44 42.666667a42.666667 42.666667 0 0 1 27.306667 24.32 256 256 0 0 1 12.373333 167.68 273.493333 273.493333 0 0 1 58.88 170.666666c0 242.346667-147.2 309.333333-247.04 331.093334a184.746667 184.746667 0 0 1 12.373333 83.2V981.333333a42.666667 42.666667 0 0 1-42.666666 42.666667z" p-id="2479" fill="#2444a9"></path></svg>