<?xml version="1.0" standalone="no"?><!DOCTYPE svg PUBLIC "-//W3C//DTD SVG 1.1//EN" "http://www.w3.org/Graphics/SVG/1.1/DTD/svg11.dtd"><svg t="1580212989434" class="icon" viewBox="0 0 1024 1024" version="1.1" xmlns="http://www.w3.org/2000/svg" p-id="2618" xmlns:xlink="http://www.w3.org/1999/xlink" width="200" height="200"><defs><style type="text/css"></style></defs><path d="M994.816 577.024l-434.688 192.512c-41.472 17.92-58.368 17.92-96.256 0L29.184 577.024C6.144 564.736 0 520.192 0 495.616c29.184 16.384 69.632 34.304 68.096 33.792l443.904 201.728 443.904-201.728c1.024 0 40.448-19.968 68.096-33.792 0 25.088-7.68 71.68-29.184 81.408z m0-201.728l-434.688 192.512c-41.472 17.92-58.368 17.92-96.256 0L29.184 375.296c-34.304-17.92-33.28-74.24 0-95.232l434.688-226.304c38.4-18.944 62.464-19.968 96.256 0l434.688 226.304c32.768 17.92 31.744 80.384 0 95.232zM512 92.16L68.096 327.68l443.904 184.32 443.904-184.32L512 92.16z m0 840.704l443.904-201.728c1.024 0 40.448-19.968 68.096-33.792 0 25.088-7.68 71.168-29.184 81.408l-434.688 192.512c-41.472 17.92-58.368 17.92-96.256 0L29.184 778.752C6.144 766.464 0 721.92 0 697.344c29.184 16.384 69.632 34.304 68.096 33.792l443.904 201.728z" p-id="2619" fill="#2444a9"></path></svg>